<svg xmlns="http://www.w3.org/2000/svg" width="22" height="23" viewBox="0 0 22 23" fill="none"><path d="M21.5844 9.0163C21.7018 9.0163 21.8032 9.09819 21.8228 9.21308C21.9377 9.85597 22 10.5477 22 11.2163C22.0037 13.9234 21.0054 16.536 19.1974 18.5509C19.1555 18.5974 19.097 18.6257 19.0345 18.6298C18.9719 18.6339 18.9103 18.6135 18.8625 18.5729L15.8742 16.0429C15.8485 16.0207 15.8275 15.9936 15.8125 15.9631C15.7975 15.9326 15.7888 15.8994 15.787 15.8655C15.7852 15.8316 15.7902 15.7977 15.8019 15.7658C15.8135 15.7339 15.8314 15.7046 15.8547 15.6799C16.4565 15.0248 16.9196 14.2549 17.2162 13.4163H11.2444C11.1796 13.4163 11.1174 13.3905 11.0716 13.3447C11.0258 13.2989 11 13.2367 11 13.1719V9.26075C11 9.1263 11.11 9.0163 11.2444 9.0163H21.5844ZM14.0226 17.083C14.0664 17.0601 14.116 17.0506 14.1651 17.0558C14.2143 17.0611 14.2608 17.0807 14.2988 17.1123L17.4374 19.7682C17.4654 19.7915 17.4877 19.8209 17.5027 19.8541C17.5176 19.8874 17.5247 19.9236 17.5236 19.96C17.5224 19.9964 17.5129 20.0321 17.4959 20.0643C17.4788 20.0965 17.4547 20.1244 17.4252 20.1459C15.555 21.4954 13.3063 22.22 11 22.2163C9.16667 22.2172 7.36223 21.7596 5.75096 20.885C4.13969 20.0104 2.77278 18.7467 1.77467 17.2089C1.74198 17.158 1.72961 17.0967 1.74002 17.0372C1.75044 16.9776 1.78288 16.9241 1.8309 16.8874L4.94145 14.4894C4.97005 14.468 5.00285 14.453 5.03769 14.4452C5.07254 14.4374 5.10864 14.4371 5.14362 14.4442C5.1786 14.4514 5.21167 14.4658 5.24065 14.4867C5.26963 14.5075 5.29388 14.5343 5.31178 14.5652C6.16692 16.0186 7.54612 17.0894 9.16611 17.5576C10.7861 18.0258 12.5239 17.856 14.0226 17.083ZM4.49778 12.3481C4.5056 12.3929 4.50109 12.4389 4.48472 12.4813C4.46836 12.5238 4.44076 12.5609 4.40489 12.5889L1.06212 15.1641C1.03262 15.1872 0.998094 15.2031 0.961326 15.2105C0.924558 15.2179 0.886573 15.2165 0.850428 15.2065C0.814283 15.1965 0.780987 15.1782 0.753221 15.153C0.725454 15.1278 0.703993 15.0964 0.690563 15.0614C0.232291 13.8313 -0.00159827 12.529 8.21978e-06 11.2163C8.21978e-06 9.8083 0.26523 8.46142 0.748008 7.22331C0.761564 7.18918 0.782785 7.15863 0.810029 7.13401C0.837274 7.10939 0.869813 7.09136 0.905134 7.08132C0.940454 7.07128 0.97761 7.0695 1.01373 7.0761C1.04985 7.08271 1.08397 7.09753 1.11345 7.11942L4.45256 9.56875C4.532 9.62619 4.56867 9.72764 4.54789 9.82297C4.36897 10.6536 4.35277 11.5109 4.49778 12.3481ZM5.06856 7.74642C5.18589 7.83197 5.35089 7.79775 5.42911 7.67553C6.02482 6.73761 6.84782 5.96541 7.82174 5.43059C8.79565 4.89577 9.8889 4.61567 11 4.61631C12.5364 4.61579 14.0243 5.15428 15.2044 6.13797C15.2521 6.17833 15.3131 6.19945 15.3755 6.19719C15.4379 6.19493 15.4972 6.16945 15.5418 6.12575L18.3113 3.35497C18.3345 3.3319 18.3528 3.30434 18.365 3.27397C18.3772 3.2436 18.3831 3.21107 18.3822 3.17836C18.3814 3.14564 18.374 3.11344 18.3603 3.0837C18.3467 3.05397 18.3271 3.02733 18.3028 3.00542C16.295 1.20826 13.6946 0.215135 11 0.21631C9.1907 0.215312 7.40915 0.661019 5.81347 1.51387C4.21779 2.36672 2.85734 3.60033 1.8529 5.1052C1.81913 5.15689 1.80652 5.21959 1.81766 5.28032C1.82881 5.34106 1.86286 5.39519 1.91278 5.43153L5.06856 7.74642Z" fill="white"></path></svg>