<svg xmlns="http://www.w3.org/2000/svg" width="80" height="80" viewBox="0 0 80 80" fill="none"><path d="M76.8007 51.4395C75.3031 53.1583 73.4158 54.4937 71.2967 55.3341C69.007 56.2278 66.5664 56.6715 64.1087 56.6408C61.7619 56.5497 59.4335 57.0879 57.3647 58.1995C56.1527 58.8433 55.0851 59.7281 54.2276 60.7995C53.37 61.871 52.7406 63.1065 52.378 64.4301C51.7023 66.8308 51.9305 69.3958 53.0194 71.6395C63.986 69.3101 67.614 64.0901 69.7927 60.9301C69.8884 60.7779 70.0138 60.6466 70.1615 60.5441C70.3092 60.4416 70.4762 60.37 70.6522 60.3337C70.8283 60.2974 71.0099 60.297 71.1861 60.3327C71.3624 60.3684 71.5295 60.4393 71.6776 60.5412C71.8257 60.6432 71.9517 60.774 72.0479 60.9259C72.1441 61.0778 72.2087 61.2475 72.2376 61.425C72.2665 61.6024 72.2593 61.7839 72.2163 61.9585C72.1733 62.133 72.0954 62.2971 71.9874 62.4408C69.8034 65.6088 65.8327 71.3501 54.6087 74.0195C56.2565 75.7807 58.4584 76.9235 60.847 77.2574C63.2356 77.5913 65.6665 77.096 67.734 75.8541C78.458 69.5701 77.8834 57.4808 76.8007 51.4395ZM46.1767 61.2995C44.4279 60.3588 42.4597 59.9022 40.4754 59.9768C38.3457 60.0044 36.231 59.6181 34.2487 58.8395C32.5245 58.1618 30.975 57.1046 29.7154 55.7461C28.8514 60.9888 28.61 70.9008 37.4674 76.0888C39.152 77.1 41.1254 77.5215 43.0761 77.2869C45.0269 77.0522 46.8439 76.1747 48.2407 74.7928C38.8007 72.4541 35.434 67.5741 33.5674 64.8675C33.3811 64.5762 33.3153 64.224 33.3838 63.8852C33.4522 63.5464 33.6496 63.2474 33.9343 63.0512C34.2189 62.8551 34.5686 62.7772 34.9096 62.834C35.2506 62.8907 35.5562 63.0777 35.762 63.3555C37.6047 66.0221 40.6634 70.4221 49.8634 72.4221C49.9754 72.1795 50.066 71.9355 50.1514 71.6915C49.314 69.4564 49.1191 67.0316 49.5887 64.6915C48.8091 63.2503 47.6224 62.0706 46.1767 61.2995Z" fill="white"></path><path d="M49.3337 41.3333C49.3348 38.4457 48.5544 35.6115 47.0753 33.1314C45.5961 30.6513 43.4733 28.6178 40.9321 27.2464C38.3908 25.8751 35.5258 25.217 32.6408 25.3421C29.7558 25.4671 26.9585 26.3706 24.5454 27.9567C22.1323 29.5428 20.1935 31.7524 18.9344 34.3512C17.6754 36.95 17.1432 39.841 17.3942 42.7178C17.6452 45.5945 18.6701 48.3497 20.3601 50.6912C22.0501 53.0327 24.3424 54.8731 26.9937 56.0173C27.119 55.0987 27.2603 54.3227 27.387 53.7507C27.4691 53.3779 27.6569 53.0367 27.9279 52.7678C28.1989 52.499 28.5416 52.3139 28.915 52.2347C29.2867 52.154 29.6738 52.1834 30.029 52.3193C30.3842 52.4553 30.6921 52.6918 30.915 53C32.0028 54.5133 33.5036 55.6812 35.2377 56.364C35.7942 56.5877 36.3658 56.7717 36.9483 56.9147C40.4645 56.0892 43.5996 54.1023 45.847 51.2749C48.0944 48.4476 49.3228 44.9451 49.3337 41.3333ZM41.0417 35.5L30.375 48.8333C30.2578 48.9795 30.1112 49.0993 29.9446 49.185C29.7781 49.2707 29.5953 49.3203 29.4083 49.3307L29.3337 49.3333C29.1585 49.3338 28.985 49.2995 28.8232 49.2325C28.6614 49.1654 28.5145 49.0669 28.391 48.9427L25.7243 46.276C25.4814 46.0245 25.3471 45.6877 25.3501 45.3381C25.3531 44.9885 25.4934 44.6541 25.7406 44.4069C25.9878 44.1597 26.3222 44.0195 26.6718 44.0164C27.0214 44.0134 27.3582 44.1478 27.6097 44.3907L29.223 46.004L38.9563 33.8333C39.0658 33.6966 39.2011 33.5827 39.3545 33.4983C39.5079 33.4138 39.6765 33.3604 39.8506 33.3411C40.0247 33.3218 40.2008 33.3369 40.3691 33.3857C40.5373 33.4345 40.6942 33.5159 40.831 33.6253C40.9677 33.7348 41.0816 33.8701 41.1661 34.0235C41.2505 34.1769 41.3039 34.3455 41.3232 34.5196C41.3426 34.6937 41.3274 34.8698 41.2786 35.0381C41.2299 35.2063 41.1484 35.3633 41.039 35.5H41.0417ZM2.66699 16H64.0003V12C64.0003 10.9391 63.5789 9.92172 62.8288 9.17157C62.0786 8.42143 61.0612 8 60.0003 8H57.3337V9.33333C57.3337 10.3942 56.9122 11.4116 56.1621 12.1618C55.4119 12.9119 54.3945 13.3333 53.3337 13.3333C52.2728 13.3333 51.2554 12.9119 50.5052 12.1618C49.7551 11.4116 49.3337 10.3942 49.3337 9.33333V8H44.0003V9.33333C44.0003 10.3942 43.5789 11.4116 42.8288 12.1618C42.0786 12.9119 41.0612 13.3333 40.0003 13.3333C38.9395 13.3333 37.922 12.9119 37.1719 12.1618C36.4218 11.4116 36.0003 10.3942 36.0003 9.33333V8H30.667V9.33333C30.667 10.3942 30.2456 11.4116 29.4954 12.1618C28.7453 12.9119 27.7279 13.3333 26.667 13.3333C25.6061 13.3333 24.5887 12.9119 23.8386 12.1618C23.0884 11.4116 22.667 10.3942 22.667 9.33333V8H17.3337V9.33333C17.3337 10.3942 16.9122 11.4116 16.1621 12.1618C15.4119 12.9119 14.3945 13.3333 13.3337 13.3333C12.2728 13.3333 11.2554 12.9119 10.5052 12.1618C9.75509 11.4116 9.33366 10.3942 9.33366 9.33333V8H6.66699C5.60613 8 4.58871 8.42143 3.83857 9.17157C3.08842 9.92172 2.66699 10.9391 2.66699 12V16Z" fill="white"></path><path d="M2.66699 61.3337C2.66699 62.3945 3.08842 63.4119 3.83857 64.1621C4.58871 64.9122 5.60613 65.3337 6.66699 65.3337H27.147C26.7535 63.1747 26.6156 60.9769 26.7363 58.7857C22.7683 57.2916 19.4266 54.4921 17.2603 50.8473C15.094 47.2025 14.232 42.9292 14.816 38.7296C15.3999 34.5301 17.3951 30.6541 20.4737 27.7386C23.5522 24.8231 27.5309 23.0416 31.756 22.6868C35.9812 22.332 40.2013 23.425 43.7229 25.7863C47.2446 28.1475 49.8582 31.6365 51.1343 35.6799C52.4105 39.7233 52.2732 44.0805 50.7451 48.0355C49.217 51.9905 46.3889 55.3081 42.7257 57.443C44.3772 57.6278 45.9756 58.1386 47.4283 58.9457C48.6512 59.6029 49.7373 60.4876 50.6283 61.5523C51.7962 59.1137 53.7149 57.1137 56.103 55.8457C58.5262 54.5408 61.2492 53.8944 64.0003 53.971V18.667H2.66699V61.3337ZM13.3337 10.667C13.6873 10.667 14.0264 10.5265 14.2765 10.2765C14.5265 10.0264 14.667 9.68728 14.667 9.33366V4.00033C14.667 3.6467 14.5265 3.30756 14.2765 3.05752C14.0264 2.80747 13.6873 2.66699 13.3337 2.66699C12.98 2.66699 12.6409 2.80747 12.3909 3.05752C12.1408 3.30756 12.0003 3.6467 12.0003 4.00033V9.33366C12.0003 9.68728 12.1408 10.0264 12.3909 10.2765C12.6409 10.5265 12.98 10.667 13.3337 10.667ZM53.3337 10.667C53.6873 10.667 54.0264 10.5265 54.2765 10.2765C54.5265 10.0264 54.667 9.68728 54.667 9.33366V4.00033C54.667 3.6467 54.5265 3.30756 54.2765 3.05752C54.0264 2.80747 53.6873 2.66699 53.3337 2.66699C52.98 2.66699 52.6409 2.80747 52.3909 3.05752C52.1408 3.30756 52.0003 3.6467 52.0003 4.00033V9.33366C52.0003 9.68728 52.1408 10.0264 52.3909 10.2765C52.6409 10.5265 52.98 10.667 53.3337 10.667ZM40.0003 10.667C40.3539 10.667 40.6931 10.5265 40.9431 10.2765C41.1932 10.0264 41.3337 9.68728 41.3337 9.33366V4.00033C41.3337 3.6467 41.1932 3.30756 40.9431 3.05752C40.6931 2.80747 40.3539 2.66699 40.0003 2.66699C39.6467 2.66699 39.3076 2.80747 39.0575 3.05752C38.8075 3.30756 38.667 3.6467 38.667 4.00033V9.33366C38.667 9.68728 38.8075 10.0264 39.0575 10.2765C39.3076 10.5265 39.6467 10.667 40.0003 10.667ZM26.667 10.667C27.0206 10.667 27.3598 10.5265 27.6098 10.2765C27.8599 10.0264 28.0003 9.68728 28.0003 9.33366V4.00033C28.0003 3.6467 27.8599 3.30756 27.6098 3.05752C27.3598 2.80747 27.0206 2.66699 26.667 2.66699C26.3134 2.66699 25.9742 2.80747 25.7242 3.05752C25.4741 3.30756 25.3337 3.6467 25.3337 4.00033V9.33366C25.3337 9.68728 25.4741 10.0264 25.7242 10.2765C25.9742 10.5265 26.3134 10.667 26.667 10.667Z" fill="white"></path></svg>