<svg xmlns="http://www.w3.org/2000/svg" width="80" height="80" viewBox="0 0 80 80" fill="none"><g clip-path="url(#clip0_237_177)"><mask id="mask0_237_177" style="mask-type:luminance" maskUnits="userSpaceOnUse" x="0" y="0" width="80" height="80"><path d="M80 0H0V80H80V0Z" fill="white"></path></mask><g mask="url(#mask0_237_177)"><path d="M3.92969 74.807C3.92969 76.0083 4.90065 76.9793 6.10201 76.9793H15.3344C16.5358 76.9793 17.5067 76.0083 17.5067 74.807V36.1659L3.92969 22.5889V74.807ZM22.7894 41.4486V74.807C22.7894 76.0083 23.7604 76.9793 24.9618 76.9793H34.1941C35.3955 76.9793 36.3665 76.0083 36.3665 74.807V51.9317C34.0625 51.6355 31.9395 50.6152 30.2774 48.953L22.7894 41.4486ZM60.5254 60.7033V74.807C60.5254 76.0083 61.4963 76.9793 62.6977 76.9793H71.9301C73.1314 76.9793 74.1024 76.0083 74.1024 74.807V61.3945C69.9881 61.197 65.8739 61.016 61.7596 60.8185C61.4799 60.8021 61.0355 60.7691 60.5254 60.7033ZM55.0287 46.1224L51.4905 42.5841L45.1216 48.953C44.1177 49.9569 42.9328 50.7304 41.6492 51.257V74.807C41.6492 76.0083 42.6201 76.9793 43.8215 76.9793H53.0539C54.2552 76.9793 55.2262 76.0083 55.2262 74.807V58.0537C54.5515 57.3461 53.9919 56.5397 53.564 55.6181C52.8564 54.0382 51.6057 50.0556 55.0287 46.1224Z" fill="white"></path><path d="M79.9934 52.1128L79.763 47.3238C79.6149 44.1311 79.4668 40.9549 79.3187 37.7623C79.2858 37.0217 79.1541 36.0672 78.3971 35.3266C78.1996 35.1291 77.9528 34.9316 77.673 34.7835C77.2616 34.5531 76.8501 34.4544 76.4552 34.4544C75.5007 34.4544 74.8753 35.0798 74.431 35.5241L73.3942 36.5609L70.8927 39.0624C70.8104 39.1446 70.7281 39.2105 70.6458 39.2928L54.5015 23.1484C53.6951 22.342 52.6254 21.8977 51.5063 21.8977C50.3873 21.8977 49.3011 22.342 48.5112 23.1484L37.7318 33.9278L8.05982 4.27221C7.25343 3.46582 6.20018 3.02148 5.06465 3.02148C3.92911 3.02148 2.85941 3.46582 2.05301 4.27221L1.24662 5.0786C-0.41554 6.74076 -0.41554 9.42325 1.24662 11.0854L34.7037 44.5425C35.5101 45.3489 36.5634 45.7933 37.6989 45.7933C38.8344 45.7933 39.9041 45.3489 40.7105 44.5425L51.4899 33.7632L63.8326 46.106C62.9604 46.9617 62.1046 47.8175 61.2489 48.6897L60.0146 49.924C59.5209 50.4177 58.5006 51.438 59.2411 53.0014C59.3892 53.3141 59.5703 53.5774 59.7842 53.7914C60.4919 54.499 61.397 54.5484 62.0388 54.5649C66.943 54.7953 71.8637 55.0257 76.7678 55.2561H77.0476C78.0186 55.2561 78.7756 54.9927 79.2858 54.4497C79.8124 53.9066 80.0428 53.1331 79.9934 52.1128Z" fill="white"></path></g></g><defs><clipPath id="clip0_237_177"><rect width="80" height="80" fill="white"></rect></clipPath></defs></svg>