<svg xmlns="http://www.w3.org/2000/svg" width="80" height="80" viewBox="0 0 80 80" fill="none"><g clip-path="url(#clip0_237_213)"><mask id="mask0_237_213" style="mask-type:luminance" maskUnits="userSpaceOnUse" x="0" y="0" width="80" height="80"><path d="M80 0H0V80H80V0Z" fill="white"></path></mask><g mask="url(#mask0_237_213)"><path d="M59.2523 52.132L54.5794 56.8802C54.4449 57.0372 54.2715 57.156 54.0764 57.2247L42.3219 61.1215H49.5546C49.9512 61.1215 50.3315 61.279 50.6119 61.5595C50.8924 61.8399 51.0499 62.2202 51.0499 62.6168C51.0499 63.0134 50.8924 63.3937 50.6119 63.6742C50.3315 63.9546 49.9512 64.1121 49.5546 64.1121H9.74019C9.3436 64.1121 8.96326 63.9546 8.68283 63.6742C8.4024 63.3937 8.24486 63.0134 8.24486 62.6168C8.24486 62.2202 8.4024 61.8399 8.68283 61.5595C8.96326 61.279 9.3436 61.1215 9.74019 61.1215H40.8398C40.7127 61.1215 40.5946 60.9835 40.4893 60.8785C40.2932 60.6855 40.1554 60.4412 40.0916 60.1735C40.0278 59.9058 40.0406 59.6256 40.1286 59.3649L41.0295 56.6355H9.74019C9.3436 56.6355 8.96326 56.478 8.68283 56.1975C8.4024 55.9171 8.24486 55.5368 8.24486 55.1402C8.24486 54.7436 8.4024 54.3633 8.68283 54.0828C8.96326 53.8024 9.3436 53.6449 9.74019 53.6449H42.0292L44.1379 47.3088C44.1902 47.1023 44.2942 46.9125 44.4402 46.7574L59.2523 31.8963V15.1402H45.7776C44.9518 15.1402 44.2991 14.5553 44.2991 13.729V0H0V80H59.2523V52.132ZM9.74019 46.1682H30.863C31.2596 46.1682 31.6399 46.3258 31.9203 46.6062C32.2008 46.8866 32.3583 47.267 32.3583 47.6635C32.3583 48.0601 32.2008 48.4405 31.9203 48.7209C31.6399 49.0013 31.2596 49.1589 30.863 49.1589H9.74019C9.3436 49.1589 8.96326 49.0013 8.68283 48.7209C8.4024 48.4405 8.24486 48.0601 8.24486 47.6635C8.24486 47.267 8.4024 46.8866 8.68283 46.6062C8.96326 46.3258 9.3436 46.1682 9.74019 46.1682ZM49.5546 71.5888H9.74019C9.3436 71.5888 8.96326 71.4312 8.68283 71.1508C8.4024 70.8704 8.24486 70.49 8.24486 70.0935C8.24486 69.6969 8.4024 69.3165 8.68283 69.0361C8.96326 68.7557 9.3436 68.5981 9.74019 68.5981H49.5548C49.9514 68.5981 50.3317 68.7557 50.6121 69.0361C50.8925 69.3165 51.0501 69.6969 51.0501 70.0935C51.0501 70.49 50.8925 70.8704 50.6121 71.1508C50.3317 71.4312 49.9512 71.5888 49.5546 71.5888Z" fill="white"></path><path d="M47.2898 2.20703V12.1493H57.3001L47.2898 2.20703ZM43.915 57.5026L50.8362 55.1889L46.2289 50.5816L43.915 57.5026ZM53.6012 53.7242L72.5337 34.75L66.6677 28.884L47.6935 47.8168L53.6012 53.7242ZM79.1758 28.0926L73.3244 22.2422L68.7844 26.7717L74.6461 32.6326L79.1758 28.0926Z" fill="white"></path></g></g><defs><clipPath id="clip0_237_213"><rect width="80" height="80" fill="white"></rect></clipPath></defs></svg>