<svg xmlns="http://www.w3.org/2000/svg" width="413" height="477" viewBox="0 0 413 477" fill="none"><g opacity="0.2"><mask id="mask0_60_343" style="mask-type:alpha" maskUnits="userSpaceOnUse" x="0" y="0" width="477" height="477"><circle cx="238.75" cy="238.716" r="238.25" fill="#D9D9D9"></circle></mask><g mask="url(#mask0_60_343)"><circle cx="3.7637" cy="3.73001" r="3.2637" fill="#00B6F1"></circle><circle cx="29.8721" cy="3.73001" r="3.2637" fill="#00B6F1"></circle><circle cx="55.9824" cy="3.73001" r="3.2637" fill="#00B6F1"></circle><circle cx="82.0938" cy="3.73001" r="3.2637" fill="#00B6F1"></circle><circle cx="108.202" cy="3.73001" r="3.2637" fill="#00B6F1"></circle><circle cx="134.312" cy="3.73001" r="3.2637" fill="#00B6F1"></circle><circle cx="160.421" cy="3.73001" r="3.2637" fill="#00B6F1"></circle><circle cx="186.531" cy="3.73001" r="3.2637" fill="#00B6F1"></circle><circle cx="212.641" cy="3.73001" r="3.2637" fill="#00B6F1"></circle><circle cx="238.75" cy="3.73001" r="3.2637" fill="#00B6F1"></circle><circle cx="264.858" cy="3.73001" r="3.2637" fill="#00B6F1"></circle><circle cx="290.97" cy="3.73001" r="3.2637" fill="#00B6F1"></circle><circle cx="317.079" cy="3.73001" r="3.2637" fill="#00B6F1"></circle><circle cx="343.189" cy="3.73001" r="3.2637" fill="#00B6F1"></circle><circle cx="369.297" cy="3.73001" r="3.2637" fill="#00B6F1"></circle><circle cx="395.407" cy="3.73001" r="3.2637" fill="#00B6F1"></circle><circle cx="3.7637" cy="29.8411" r="3.2637" fill="#00B6F1"></circle><circle cx="29.8721" cy="29.8411" r="3.2637" fill="#00B6F1"></circle><circle cx="55.9824" cy="29.8411" r="3.2637" fill="#00B6F1"></circle><circle cx="82.0938" cy="29.8411" r="3.2637" fill="#00B6F1"></circle><circle cx="108.202" cy="29.8411" r="3.2637" fill="#00B6F1"></circle><circle cx="134.312" cy="29.8411" r="3.2637" fill="#00B6F1"></circle><circle cx="160.421" cy="29.8411" r="3.2637" fill="#00B6F1"></circle><circle cx="186.531" cy="29.8411" r="3.2637" fill="#00B6F1"></circle><circle cx="212.641" cy="29.8411" r="3.2637" fill="#00B6F1"></circle><circle cx="238.75" cy="29.8411" r="3.2637" fill="#00B6F1"></circle><circle cx="264.858" cy="29.8411" r="3.2637" fill="#00B6F1"></circle><circle cx="290.97" cy="29.8411" r="3.2637" fill="#00B6F1"></circle><circle cx="317.079" cy="29.8411" r="3.2637" fill="#00B6F1"></circle><circle cx="343.189" cy="29.8411" r="3.2637" fill="#00B6F1"></circle><circle cx="369.297" cy="29.8411" r="3.2637" fill="#00B6F1"></circle><circle cx="395.407" cy="29.8411" r="3.2637" fill="#00B6F1"></circle><circle cx="3.7637" cy="55.9473" r="3.2637" fill="#00B6F1"></circle><circle cx="29.8721" cy="55.9473" r="3.2637" fill="#00B6F1"></circle><circle cx="55.9824" cy="55.9473" r="3.2637" fill="#00B6F1"></circle><circle cx="82.0938" cy="55.9473" r="3.2637" fill="#00B6F1"></circle><circle cx="108.202" cy="55.9473" r="3.2637" fill="#00B6F1"></circle><circle cx="134.312" cy="55.9473" r="3.2637" fill="#00B6F1"></circle><circle cx="160.421" cy="55.9473" r="3.2637" fill="#00B6F1"></circle><circle cx="186.531" cy="55.9473" r="3.2637" fill="#00B6F1"></circle><circle cx="212.641" cy="55.9473" r="3.2637" fill="#00B6F1"></circle><circle cx="238.75" cy="55.9473" r="3.2637" fill="#00B6F1"></circle><circle cx="264.858" cy="55.9473" r="3.2637" fill="#00B6F1"></circle><circle cx="290.97" cy="55.9473" r="3.2637" fill="#00B6F1"></circle><circle cx="317.079" cy="55.9473" r="3.2637" fill="#00B6F1"></circle><circle cx="343.189" cy="55.9473" r="3.2637" fill="#00B6F1"></circle><circle cx="369.297" cy="55.9473" r="3.2637" fill="#00B6F1"></circle><circle cx="395.407" cy="55.9473" r="3.2637" fill="#00B6F1"></circle><circle cx="3.7637" cy="82.0601" r="3.2637" fill="#00B6F1"></circle><circle cx="29.8721" cy="82.0601" r="3.2637" fill="#00B6F1"></circle><circle cx="55.9824" cy="82.0601" r="3.2637" fill="#00B6F1"></circle><circle cx="82.0938" cy="82.0601" r="3.2637" fill="#00B6F1"></circle><circle cx="108.202" cy="82.0601" r="3.2637" fill="#00B6F1"></circle><circle cx="134.312" cy="82.0601" r="3.2637" fill="#00B6F1"></circle><circle cx="160.421" cy="82.0601" r="3.2637" fill="#00B6F1"></circle><circle cx="186.531" cy="82.0601" r="3.2637" fill="#00B6F1"></circle><circle cx="212.641" cy="82.0601" r="3.2637" fill="#00B6F1"></circle><circle cx="238.75" cy="82.0601" r="3.2637" fill="#00B6F1"></circle><circle cx="264.858" cy="82.0601" r="3.2637" fill="#00B6F1"></circle><circle cx="290.97" cy="82.0601" r="3.2637" fill="#00B6F1"></circle><circle cx="317.079" cy="82.0601" r="3.2637" fill="#00B6F1"></circle><circle cx="343.189" cy="82.0601" r="3.2637" fill="#00B6F1"></circle><circle cx="369.297" cy="82.0601" r="3.2637" fill="#00B6F1"></circle><circle cx="395.407" cy="82.0601" r="3.2637" fill="#00B6F1"></circle><circle cx="3.7637" cy="108.168" r="3.2637" fill="#00B6F1"></circle><circle cx="29.8721" cy="108.168" r="3.2637" fill="#00B6F1"></circle><circle cx="55.9824" cy="108.168" r="3.2637" fill="#00B6F1"></circle><circle cx="82.0938" cy="108.168" r="3.2637" fill="#00B6F1"></circle><circle cx="108.202" cy="108.168" r="3.2637" fill="#00B6F1"></circle><circle cx="134.312" cy="108.168" r="3.2637" fill="#00B6F1"></circle><circle cx="160.421" cy="108.168" r="3.2637" fill="#00B6F1"></circle><circle cx="186.531" cy="108.168" r="3.2637" fill="#00B6F1"></circle><circle cx="212.641" cy="108.168" r="3.2637" fill="#00B6F1"></circle><circle cx="238.75" cy="108.168" r="3.2637" fill="#00B6F1"></circle><circle cx="264.858" cy="108.168" r="3.2637" fill="#00B6F1"></circle><circle cx="290.97" cy="108.168" r="3.2637" fill="#00B6F1"></circle><circle cx="317.079" cy="108.168" r="3.2637" fill="#00B6F1"></circle><circle cx="343.189" cy="108.168" r="3.2637" fill="#00B6F1"></circle><circle cx="369.297" cy="108.168" r="3.2637" fill="#00B6F1"></circle><circle cx="395.407" cy="108.168" r="3.2637" fill="#00B6F1"></circle><circle cx="3.7637" cy="134.277" r="3.2637" fill="#00B6F1"></circle><circle cx="29.8721" cy="134.277" r="3.2637" fill="#00B6F1"></circle><circle cx="55.9824" cy="134.277" r="3.2637" fill="#00B6F1"></circle><circle cx="82.0938" cy="134.277" r="3.2637" fill="#00B6F1"></circle><circle cx="108.202" cy="134.277" r="3.2637" fill="#00B6F1"></circle><circle cx="134.312" cy="134.277" r="3.2637" fill="#00B6F1"></circle><circle cx="160.421" cy="134.277" r="3.2637" fill="#00B6F1"></circle><circle cx="186.531" cy="134.277" r="3.2637" fill="#00B6F1"></circle><circle cx="212.641" cy="134.277" r="3.2637" fill="#00B6F1"></circle><circle cx="238.75" cy="134.277" r="3.2637" fill="#00B6F1"></circle><circle cx="264.858" cy="134.277" r="3.2637" fill="#00B6F1"></circle><circle cx="290.97" cy="134.277" r="3.2637" fill="#00B6F1"></circle><circle cx="317.079" cy="134.277" r="3.2637" fill="#00B6F1"></circle><circle cx="343.189" cy="134.277" r="3.2637" fill="#00B6F1"></circle><circle cx="369.297" cy="134.277" r="3.2637" fill="#00B6F1"></circle><circle cx="395.407" cy="134.277" r="3.2637" fill="#00B6F1"></circle><circle cx="3.7637" cy="160.39" r="3.2637" fill="#00B6F1"></circle><circle cx="29.8721" cy="160.39" r="3.2637" fill="#00B6F1"></circle><circle cx="55.9824" cy="160.39" r="3.2637" fill="#00B6F1"></circle><circle cx="82.0938" cy="160.39" r="3.2637" fill="#00B6F1"></circle><circle cx="108.202" cy="160.39" r="3.2637" fill="#00B6F1"></circle><circle cx="134.312" cy="160.39" r="3.2637" fill="#00B6F1"></circle><circle cx="160.421" cy="160.39" r="3.2637" fill="#00B6F1"></circle><circle cx="186.531" cy="160.39" r="3.2637" fill="#00B6F1"></circle><circle cx="212.641" cy="160.39" r="3.2637" fill="#00B6F1"></circle><circle cx="238.75" cy="160.39" r="3.2637" fill="#00B6F1"></circle><circle cx="264.858" cy="160.39" r="3.2637" fill="#00B6F1"></circle><circle cx="290.97" cy="160.39" r="3.2637" fill="#00B6F1"></circle><circle cx="317.079" cy="160.39" r="3.2637" fill="#00B6F1"></circle><circle cx="343.189" cy="160.39" r="3.2637" fill="#00B6F1"></circle><circle cx="369.297" cy="160.39" r="3.2637" fill="#00B6F1"></circle><circle cx="395.407" cy="160.39" r="3.2637" fill="#00B6F1"></circle><circle cx="3.7637" cy="186.495" r="3.2637" fill="#00B6F1"></circle><circle cx="29.8721" cy="186.495" r="3.2637" fill="#00B6F1"></circle><circle cx="55.9824" cy="186.495" r="3.2637" fill="#00B6F1"></circle><circle cx="82.0938" cy="186.495" r="3.2637" fill="#00B6F1"></circle><circle cx="108.202" cy="186.495" r="3.2637" fill="#00B6F1"></circle><circle cx="134.312" cy="186.495" r="3.2637" fill="#00B6F1"></circle><circle cx="160.421" cy="186.495" r="3.2637" fill="#00B6F1"></circle><circle cx="186.531" cy="186.495" r="3.2637" fill="#00B6F1"></circle><circle cx="212.641" cy="186.495" r="3.2637" fill="#00B6F1"></circle><circle cx="238.75" cy="186.495" r="3.2637" fill="#00B6F1"></circle><circle cx="264.858" cy="186.495" r="3.2637" fill="#00B6F1"></circle><circle cx="290.97" cy="186.495" r="3.2637" fill="#00B6F1"></circle><circle cx="317.079" cy="186.495" r="3.2637" fill="#00B6F1"></circle><circle cx="343.189" cy="186.495" r="3.2637" fill="#00B6F1"></circle><circle cx="369.297" cy="186.495" r="3.2637" fill="#00B6F1"></circle><circle cx="395.407" cy="186.495" r="3.2637" fill="#00B6F1"></circle><circle cx="3.7637" cy="212.607" r="3.2637" fill="#00B6F1"></circle><circle cx="29.8721" cy="212.607" r="3.2637" fill="#00B6F1"></circle><circle cx="55.9824" cy="212.607" r="3.2637" fill="#00B6F1"></circle><circle cx="82.0938" cy="212.607" r="3.2637" fill="#00B6F1"></circle><circle cx="108.202" cy="212.607" r="3.2637" fill="#00B6F1"></circle><circle cx="134.312" cy="212.607" r="3.2637" fill="#00B6F1"></circle><circle cx="160.421" cy="212.607" r="3.2637" fill="#00B6F1"></circle><circle cx="186.531" cy="212.607" r="3.2637" fill="#00B6F1"></circle><circle cx="212.641" cy="212.607" r="3.2637" fill="#00B6F1"></circle><circle cx="238.75" cy="212.607" r="3.2637" fill="#00B6F1"></circle><circle cx="264.858" cy="212.607" r="3.2637" fill="#00B6F1"></circle><circle cx="290.97" cy="212.607" r="3.2637" fill="#00B6F1"></circle><circle cx="317.079" cy="212.607" r="3.2637" fill="#00B6F1"></circle><circle cx="343.189" cy="212.607" r="3.2637" fill="#00B6F1"></circle><circle cx="369.297" cy="212.607" r="3.2637" fill="#00B6F1"></circle><circle cx="395.407" cy="212.607" r="3.2637" fill="#00B6F1"></circle><circle cx="3.7637" cy="238.717" r="3.2637" fill="#00B6F1"></circle><circle cx="29.8721" cy="238.717" r="3.2637" fill="#00B6F1"></circle><circle cx="55.9824" cy="238.717" r="3.2637" fill="#00B6F1"></circle><circle cx="82.0938" cy="238.717" r="3.2637" fill="#00B6F1"></circle><circle cx="108.202" cy="238.717" r="3.2637" fill="#00B6F1"></circle><circle cx="134.312" cy="238.717" r="3.2637" fill="#00B6F1"></circle><circle cx="160.421" cy="238.717" r="3.2637" fill="#00B6F1"></circle><circle cx="186.531" cy="238.717" r="3.2637" fill="#00B6F1"></circle><circle cx="212.641" cy="238.717" r="3.2637" fill="#00B6F1"></circle><circle cx="238.75" cy="238.717" r="3.2637" fill="#00B6F1"></circle><circle cx="264.858" cy="238.717" r="3.2637" fill="#00B6F1"></circle><circle cx="290.97" cy="238.717" r="3.2637" fill="#00B6F1"></circle><circle cx="317.079" cy="238.717" r="3.2637" fill="#00B6F1"></circle><circle cx="343.189" cy="238.717" r="3.2637" fill="#00B6F1"></circle><circle cx="369.297" cy="238.717" r="3.2637" fill="#00B6F1"></circle><circle cx="395.407" cy="238.717" r="3.2637" fill="#00B6F1"></circle><circle cx="3.7637" cy="264.824" r="3.2637" fill="#00B6F1"></circle><circle cx="29.8721" cy="264.824" r="3.2637" fill="#00B6F1"></circle><circle cx="55.9824" cy="264.824" r="3.2637" fill="#00B6F1"></circle><circle cx="82.0938" cy="264.824" r="3.2637" fill="#00B6F1"></circle><circle cx="108.202" cy="264.824" r="3.2637" fill="#00B6F1"></circle><circle cx="134.312" cy="264.824" r="3.2637" fill="#00B6F1"></circle><circle cx="160.421" cy="264.824" r="3.2637" fill="#00B6F1"></circle><circle cx="186.531" cy="264.824" r="3.2637" fill="#00B6F1"></circle><circle cx="212.641" cy="264.824" r="3.2637" fill="#00B6F1"></circle><circle cx="238.75" cy="264.824" r="3.2637" fill="#00B6F1"></circle><circle cx="264.858" cy="264.824" r="3.2637" fill="#00B6F1"></circle><circle cx="290.97" cy="264.824" r="3.2637" fill="#00B6F1"></circle><circle cx="317.079" cy="264.824" r="3.2637" fill="#00B6F1"></circle><circle cx="343.189" cy="264.824" r="3.2637" fill="#00B6F1"></circle><circle cx="369.297" cy="264.824" r="3.2637" fill="#00B6F1"></circle><circle cx="395.407" cy="264.824" r="3.2637" fill="#00B6F1"></circle><circle cx="3.7637" cy="290.937" r="3.2637" fill="#00B6F1"></circle><circle cx="29.8721" cy="290.937" r="3.2637" fill="#00B6F1"></circle><circle cx="55.9824" cy="290.937" r="3.2637" fill="#00B6F1"></circle><circle cx="82.0938" cy="290.937" r="3.2637" fill="#00B6F1"></circle><circle cx="108.202" cy="290.937" r="3.2637" fill="#00B6F1"></circle><circle cx="134.312" cy="290.937" r="3.2637" fill="#00B6F1"></circle><circle cx="160.421" cy="290.937" r="3.2637" fill="#00B6F1"></circle><circle cx="186.531" cy="290.937" r="3.2637" fill="#00B6F1"></circle><circle cx="212.641" cy="290.937" r="3.2637" fill="#00B6F1"></circle><circle cx="238.75" cy="290.937" r="3.2637" fill="#00B6F1"></circle><circle cx="264.858" cy="290.937" r="3.2637" fill="#00B6F1"></circle><circle cx="290.97" cy="290.937" r="3.2637" fill="#00B6F1"></circle><circle cx="317.079" cy="290.937" r="3.2637" fill="#00B6F1"></circle><circle cx="343.189" cy="290.937" r="3.2637" fill="#00B6F1"></circle><circle cx="369.297" cy="290.937" r="3.2637" fill="#00B6F1"></circle><circle cx="395.407" cy="290.937" r="3.2637" fill="#00B6F1"></circle><circle cx="3.7637" cy="317.043" r="3.2637" fill="#00B6F1"></circle><circle cx="29.8721" cy="317.044" r="3.2637" fill="#00B6F1"></circle><circle cx="55.9824" cy="317.044" r="3.2637" fill="#00B6F1"></circle><circle cx="82.0938" cy="317.044" r="3.2637" fill="#00B6F1"></circle><circle cx="108.202" cy="317.044" r="3.2637" fill="#00B6F1"></circle><circle cx="134.312" cy="317.044" r="3.2637" fill="#00B6F1"></circle><circle cx="160.421" cy="317.044" r="3.2637" fill="#00B6F1"></circle><circle cx="186.531" cy="317.044" r="3.2637" fill="#00B6F1"></circle><circle cx="212.641" cy="317.044" r="3.2637" fill="#00B6F1"></circle><circle cx="238.75" cy="317.044" r="3.2637" fill="#00B6F1"></circle><circle cx="264.858" cy="317.044" r="3.2637" fill="#00B6F1"></circle><circle cx="290.97" cy="317.044" r="3.2637" fill="#00B6F1"></circle><circle cx="317.079" cy="317.044" r="3.2637" fill="#00B6F1"></circle><circle cx="343.189" cy="317.044" r="3.2637" fill="#00B6F1"></circle><circle cx="369.297" cy="317.044" r="3.2637" fill="#00B6F1"></circle><circle cx="395.407" cy="317.044" r="3.2637" fill="#00B6F1"></circle><circle cx="3.7637" cy="343.155" r="3.2637" fill="#00B6F1"></circle><circle cx="29.8721" cy="343.155" r="3.2637" fill="#00B6F1"></circle><circle cx="55.9824" cy="343.155" r="3.2637" fill="#00B6F1"></circle><circle cx="82.0938" cy="343.155" r="3.2637" fill="#00B6F1"></circle><circle cx="108.202" cy="343.155" r="3.2637" fill="#00B6F1"></circle><circle cx="134.312" cy="343.155" r="3.2637" fill="#00B6F1"></circle><circle cx="160.421" cy="343.155" r="3.2637" fill="#00B6F1"></circle><circle cx="186.531" cy="343.155" r="3.2637" fill="#00B6F1"></circle><circle cx="212.641" cy="343.155" r="3.2637" fill="#00B6F1"></circle><circle cx="238.75" cy="343.155" r="3.2637" fill="#00B6F1"></circle><circle cx="264.858" cy="343.155" r="3.2637" fill="#00B6F1"></circle><circle cx="290.97" cy="343.155" r="3.2637" fill="#00B6F1"></circle><circle cx="317.079" cy="343.155" r="3.2637" fill="#00B6F1"></circle><circle cx="343.189" cy="343.155" r="3.2637" fill="#00B6F1"></circle><circle cx="369.297" cy="343.155" r="3.2637" fill="#00B6F1"></circle><circle cx="395.407" cy="343.155" r="3.2637" fill="#00B6F1"></circle><circle cx="3.7637" cy="369.266" r="3.2637" fill="#00B6F1"></circle><circle cx="29.8721" cy="369.266" r="3.2637" fill="#00B6F1"></circle><circle cx="55.9824" cy="369.266" r="3.2637" fill="#00B6F1"></circle><circle cx="82.0938" cy="369.266" r="3.2637" fill="#00B6F1"></circle><circle cx="108.202" cy="369.266" r="3.2637" fill="#00B6F1"></circle><circle cx="134.312" cy="369.266" r="3.2637" fill="#00B6F1"></circle><circle cx="160.421" cy="369.266" r="3.2637" fill="#00B6F1"></circle><circle cx="186.531" cy="369.266" r="3.2637" fill="#00B6F1"></circle><circle cx="212.641" cy="369.266" r="3.2637" fill="#00B6F1"></circle><circle cx="238.75" cy="369.266" r="3.2637" fill="#00B6F1"></circle><circle cx="264.858" cy="369.266" r="3.2637" fill="#00B6F1"></circle><circle cx="290.97" cy="369.266" r="3.2637" fill="#00B6F1"></circle><circle cx="317.079" cy="369.266" r="3.2637" fill="#00B6F1"></circle><circle cx="343.189" cy="369.266" r="3.2637" fill="#00B6F1"></circle><circle cx="369.297" cy="369.266" r="3.2637" fill="#00B6F1"></circle><circle cx="395.407" cy="369.266" r="3.2637" fill="#00B6F1"></circle><circle cx="3.7637" cy="395.372" r="3.2637" fill="#00B6F1"></circle><circle cx="29.8721" cy="395.372" r="3.2637" fill="#00B6F1"></circle><circle cx="55.9824" cy="395.372" r="3.2637" fill="#00B6F1"></circle><circle cx="82.0938" cy="395.372" r="3.2637" fill="#00B6F1"></circle><circle cx="108.202" cy="395.372" r="3.2637" fill="#00B6F1"></circle><circle cx="134.312" cy="395.372" r="3.2637" fill="#00B6F1"></circle><circle cx="160.421" cy="395.372" r="3.2637" fill="#00B6F1"></circle><circle cx="186.531" cy="395.372" r="3.2637" fill="#00B6F1"></circle><circle cx="212.641" cy="395.372" r="3.2637" fill="#00B6F1"></circle><circle cx="238.75" cy="395.372" r="3.2637" fill="#00B6F1"></circle><circle cx="264.858" cy="395.372" r="3.2637" fill="#00B6F1"></circle><circle cx="290.97" cy="395.372" r="3.2637" fill="#00B6F1"></circle><circle cx="317.079" cy="395.372" r="3.2637" fill="#00B6F1"></circle><circle cx="343.189" cy="395.372" r="3.2637" fill="#00B6F1"></circle><circle cx="369.297" cy="395.372" r="3.2637" fill="#00B6F1"></circle><circle cx="395.407" cy="395.372" r="3.2637" fill="#00B6F1"></circle><circle cx="3.7637" cy="421.485" r="3.2637" fill="#00B6F1"></circle><circle cx="29.8721" cy="421.485" r="3.2637" fill="#00B6F1"></circle><circle cx="55.9824" cy="421.485" r="3.2637" fill="#00B6F1"></circle><circle cx="82.0938" cy="421.485" r="3.2637" fill="#00B6F1"></circle><circle cx="108.202" cy="421.485" r="3.2637" fill="#00B6F1"></circle><circle cx="134.312" cy="421.485" r="3.2637" fill="#00B6F1"></circle><circle cx="160.421" cy="421.485" r="3.2637" fill="#00B6F1"></circle><circle cx="186.531" cy="421.485" r="3.2637" fill="#00B6F1"></circle><circle cx="212.641" cy="421.485" r="3.2637" fill="#00B6F1"></circle><circle cx="238.75" cy="421.485" r="3.2637" fill="#00B6F1"></circle><circle cx="264.858" cy="421.485" r="3.2637" fill="#00B6F1"></circle><circle cx="290.97" cy="421.485" r="3.2637" fill="#00B6F1"></circle><circle cx="317.079" cy="421.485" r="3.2637" fill="#00B6F1"></circle><circle cx="343.189" cy="421.485" r="3.2637" fill="#00B6F1"></circle><circle cx="369.297" cy="421.485" r="3.2637" fill="#00B6F1"></circle><circle cx="395.407" cy="421.485" r="3.2637" fill="#00B6F1"></circle><circle cx="3.7637" cy="473.702" r="3.2637" fill="#00B6F1"></circle><circle cx="29.8721" cy="473.702" r="3.2637" fill="#00B6F1"></circle><circle cx="55.9824" cy="473.702" r="3.2637" fill="#00B6F1"></circle><circle cx="82.0938" cy="473.702" r="3.2637" fill="#00B6F1"></circle><circle cx="108.202" cy="473.702" r="3.2637" fill="#00B6F1"></circle><circle cx="134.312" cy="473.702" r="3.2637" fill="#00B6F1"></circle><circle cx="160.421" cy="473.702" r="3.2637" fill="#00B6F1"></circle><circle cx="186.531" cy="473.702" r="3.2637" fill="#00B6F1"></circle><circle cx="212.641" cy="473.702" r="3.2637" fill="#00B6F1"></circle><circle cx="238.75" cy="473.702" r="3.2637" fill="#00B6F1"></circle><circle cx="264.858" cy="473.702" r="3.2637" fill="#00B6F1"></circle><circle cx="290.97" cy="473.702" r="3.2637" fill="#00B6F1"></circle><circle cx="317.079" cy="473.702" r="3.2637" fill="#00B6F1"></circle><circle cx="343.189" cy="473.702" r="3.2637" fill="#00B6F1"></circle><circle cx="369.297" cy="473.702" r="3.2637" fill="#00B6F1"></circle><circle cx="395.407" cy="473.702" r="3.2637" fill="#00B6F1"></circle><circle cx="3.7637" cy="447.595" r="3.2637" fill="#00B6F1"></circle><circle cx="29.8721" cy="447.593" r="3.2637" fill="#00B6F1"></circle><circle cx="55.9824" cy="447.593" r="3.2637" fill="#00B6F1"></circle><circle cx="82.0938" cy="447.593" r="3.2637" fill="#00B6F1"></circle><circle cx="108.202" cy="447.593" r="3.2637" fill="#00B6F1"></circle><circle cx="134.312" cy="447.593" r="3.2637" fill="#00B6F1"></circle><circle cx="160.421" cy="447.593" r="3.2637" fill="#00B6F1"></circle><circle cx="186.531" cy="447.593" r="3.2637" fill="#00B6F1"></circle><circle cx="212.641" cy="447.593" r="3.2637" fill="#00B6F1"></circle><circle cx="238.75" cy="447.593" r="3.2637" fill="#00B6F1"></circle><circle cx="264.858" cy="447.593" r="3.2637" fill="#00B6F1"></circle><circle cx="290.97" cy="447.593" r="3.2637" fill="#00B6F1"></circle><circle cx="317.079" cy="447.593" r="3.2637" fill="#00B6F1"></circle><circle cx="343.189" cy="447.593" r="3.2637" fill="#00B6F1"></circle><circle cx="369.297" cy="447.593" r="3.2637" fill="#00B6F1"></circle><circle cx="395.407" cy="447.593" r="3.2637" fill="#00B6F1"></circle></g></g></svg>