<svg xmlns="http://www.w3.org/2000/svg" width="80" height="80" viewBox="0 0 80 80" fill="none"><path d="M40.4571 16.8875C41.8521 15.0067 42.609 12.7291 42.6171 10.3875V6.25C42.6171 5.5625 42.0546 5 41.3684 5C38.6709 5 37.2471 5.675 35.9971 6.275C34.8359 6.8375 33.8371 7.3125 31.7134 7.3125C29.5896 7.3125 28.5909 6.8375 27.4296 6.275C26.1796 5.675 24.7559 5 22.0584 5C21.3709 5 20.8084 5.5625 20.8084 6.25V10.3875C20.8084 12.75 21.5959 15.025 22.9709 16.8875H40.4571ZM12.0009 50.1875L23.4759 53.525C24.2255 52.5164 25.1998 51.6965 26.3216 51.1302C27.4434 50.5638 28.6817 50.2668 29.9384 50.2625H38.9759C39.2509 50.2625 39.5134 50.1875 39.7509 50.0375L44.2134 47.2C46.4884 45.7625 49.1134 45 51.8009 45H53.4884L52.5509 35.0125C51.9634 28.575 48.4009 22.85 43.0509 19.3875H20.3746C15.0246 22.85 11.4621 28.575 10.8746 35.0125L9.47461 49.9C10.3265 49.8503 11.1819 49.9475 12.0009 50.1875ZM32.8634 36.0125H30.5634C24.4009 35.825 24.3259 26.9 30.4634 26.5875V25.2875C30.4634 24.5875 31.0259 24.0375 31.7134 24.0375C32.4009 24.0375 32.9634 24.5875 32.9634 25.2875V26.5875H36.3259C37.9759 26.6125 37.9759 29.0625 36.3259 29.0875H30.5634C27.6634 29.1375 27.6634 33.4625 30.5634 33.5125H32.8634C39.0259 33.6875 39.1134 42.625 32.9634 42.9375V44.25C32.9634 44.9375 32.4009 45.5 31.7134 45.5C31.0259 45.5 30.4634 44.9375 30.4634 44.25V42.9375H27.1134C25.4634 42.9 25.4634 40.4625 27.1134 40.4375H32.8634C35.7759 40.3875 35.7759 36.0625 32.8634 36.0125Z" fill="white"></path><path d="M60.9253 48.5411C60.9503 48.1911 61.0003 47.8411 61.0753 47.5036H51.789C47.9678 47.2536 44.1378 50.2336 41.079 52.1536C40.4415 52.5523 39.7165 52.7648 38.9665 52.7648H29.9315C22.5515 53.0148 22.544 63.6836 29.9315 63.9248H39.104C39.4355 63.9248 39.7535 64.0565 39.9879 64.2909C40.2223 64.5253 40.354 64.8433 40.354 65.1748C40.354 65.5063 40.2223 65.8243 39.9879 66.0587C39.7535 66.2931 39.4355 66.4248 39.104 66.4248H29.9315C24.5353 66.5448 20.4403 60.8486 22.269 55.7761L11.284 52.5898C5.54275 50.9836 2.4065 59.1161 7.81025 61.7386L32.1053 73.2486C34.7697 74.5143 37.7031 75.1099 40.6502 74.9836C43.5973 74.8572 46.4689 74.0127 49.0153 72.5236L58.6628 66.8986C59.3628 66.4636 60.304 66.5323 61.0878 66.5361C60.8303 66.5798 60.9378 49.0511 60.9253 48.5411ZM72.4828 45.1123H67.1703C65.5828 45.1123 64.2203 46.0998 63.6828 47.4998C63.5328 47.8748 63.4453 48.2748 63.4203 48.6873V65.1623C63.4203 65.6498 63.5078 66.1123 63.6828 66.5373C64.2328 67.9248 65.5828 68.9123 67.1703 68.9123H72.4828C73.8578 68.9123 74.9828 67.7873 74.9828 66.4123V47.6123C74.9828 46.2373 73.8578 45.1123 72.4828 45.1123ZM69.1953 52.8873C67.5578 52.8623 67.5578 50.4248 69.1953 50.3873C70.8453 50.4248 70.8328 52.8623 69.1953 52.8873Z" fill="white"></path></svg>